<svg width="40" height="40" viewBox="0 0 40 40" fill="none" xmlns="http://www.w3.org/2000/svg">
<g clip-path="url(#clip0_261_1231)">
<path d="M39.9751 20.0004C39.9751 8.96851 31.032 0.0253906 20.0001 0.0253906C8.96814 0.0253906 0.0250244 8.96851 0.0250244 20.0004C0.0250244 29.9705 7.3296 38.2343 16.879 39.7328V25.7745H11.8072V20.0004H16.879V15.5997C16.879 10.5934 19.8611 7.82815 24.4238 7.82815C26.6093 7.82815 28.8952 8.21828 28.8952 8.21828V13.134H26.3764C23.895 13.134 23.1212 14.6738 23.1212 16.2534V20.0004H28.6611L27.7755 25.7745H23.1211V39.7328C32.6705 38.2343 39.9751 29.9705 39.9751 20.0004Z" fill="#1877F2"/>
<path d="M27.7754 25.7744L28.6611 20.0004H23.1211V16.2534C23.1211 14.6737 23.8949 13.134 26.3763 13.134H28.8951V8.21825C28.8951 8.21825 26.6092 7.82812 24.4238 7.82812C19.861 7.82812 16.8789 10.5934 16.8789 15.5997V20.0004H11.8071V25.7744H16.8789V39.7328C17.9114 39.8946 18.9549 39.9757 20 39.9754C21.0618 39.9754 22.1041 39.8923 23.1211 39.7328V25.7744H27.7754Z" fill="white"/>
</g>
<defs>
<clipPath id="clip0_261_1231">
<rect width="40" height="39.7004" fill="white"/>
</clipPath>
</defs>
</svg>
