<svg width="40" height="40" viewBox="0 0 40 40" fill="none" xmlns="http://www.w3.org/2000/svg">
<g clip-path="url(#clip0_261_1234)">
<path d="M33.0608 9.33848C33.0608 8.01076 31.9847 6.93868 30.662 6.93868C29.3391 6.93868 28.2621 8.01076 28.2621 9.33848C28.2621 10.6613 29.3391 11.7334 30.662 11.7334C31.9847 11.7334 33.0608 10.6613 33.0608 9.33848Z" fill="url(#paint0_linear_261_1234)"/>
<path d="M36.2573 28.0702C36.1685 30.0179 35.8427 31.0762 35.5723 31.779C35.209 32.7109 34.7756 33.3773 34.0728 34.0762C33.3778 34.7751 32.7114 35.2075 31.7795 35.5668C31.0767 35.8413 30.0144 36.168 28.0668 36.2609C25.9611 36.3536 25.3372 36.3734 19.9976 36.3734C14.6629 36.3734 14.034 36.3536 11.9284 36.2609C9.98072 36.168 8.92346 35.8413 8.22054 35.5668C7.28373 35.2075 6.62235 34.7751 5.92343 34.0762C5.21955 33.3773 4.7862 32.7109 4.42786 31.779C4.15732 31.0762 3.82667 30.0179 3.74271 28.0702C3.64009 25.9646 3.62128 25.3308 3.62128 20.0021C3.62128 14.6624 3.64009 14.0335 3.74271 11.9279C3.82667 9.98024 4.15732 8.92298 4.42786 8.21414C4.7862 7.28325 5.21955 6.62083 5.92343 5.92191C6.62235 5.22403 7.28373 4.79061 8.22054 4.42738C8.92346 4.15195 9.98072 3.83011 11.9284 3.73734C14.034 3.6445 14.6629 3.6208 19.9976 3.6208C25.3372 3.6208 25.9611 3.6445 28.0668 3.73734C30.0144 3.83011 31.0767 4.15195 31.7795 4.42738C32.7114 4.79061 33.3778 5.22403 34.0728 5.92191C34.7756 6.62083 35.209 7.28325 35.5723 8.21414C35.8427 8.92298 36.1685 9.98024 36.2573 11.9279C36.3551 14.0335 36.3788 14.6624 36.3788 20.0021C36.3788 25.3308 36.3551 25.9646 36.2573 28.0702ZM39.8537 11.764C39.7559 9.63567 39.4202 8.18156 38.9217 6.91506C38.4144 5.6011 37.7342 4.48757 36.6206 3.37403C35.5121 2.26546 34.3985 1.58527 33.0846 1.07196C31.8131 0.578354 30.3639 0.238739 28.2346 0.145969C26.1052 0.0432777 25.4251 0.0245438 19.9976 0.0245438C14.575 0.0245438 13.8899 0.0432777 11.7606 0.145969C9.63615 0.238739 8.18796 0.578354 6.91058 1.07196C5.60158 1.58527 4.48805 2.26546 3.37947 3.37403C2.26594 4.48757 1.58575 5.6011 1.07341 6.91506C0.579793 8.18156 0.244178 9.63567 0.141487 11.764C0.0487166 13.8934 0.0250244 14.5745 0.0250244 20.0021C0.0250244 25.4246 0.0487166 26.1047 0.141487 28.2341C0.244178 30.3585 0.579793 31.8116 1.07341 33.0841C1.58575 34.3931 2.26594 35.5116 3.37947 36.6202C4.48805 37.7287 5.60158 38.4139 6.91058 38.9262C8.18796 39.4198 9.63615 39.7555 11.7606 39.8532C13.8899 39.9509 14.575 39.9746 19.9976 39.9746C25.4251 39.9746 26.1052 39.9509 28.2346 39.8532C30.3639 39.7555 31.8131 39.4198 33.0846 38.9262C34.3985 38.4139 35.5121 37.7287 36.6206 36.6202C37.7342 35.5116 38.4144 34.3931 38.9217 33.0841C39.4202 31.8116 39.7559 30.3585 39.8537 28.2341C39.9514 26.1047 39.9751 25.4246 39.9751 20.0021C39.9751 14.5745 39.9514 13.8934 39.8537 11.764Z" fill="url(#paint1_linear_261_1234)"/>
<path d="M19.9975 26.6546C16.3223 26.6546 13.34 23.6773 13.34 20.002C13.34 16.3208 16.3223 13.3396 19.9975 13.3396C23.6738 13.3396 26.66 16.3208 26.66 20.002C26.66 23.6773 23.6738 26.6546 19.9975 26.6546ZM19.9975 9.73839C14.3321 9.73839 9.74377 14.3366 9.74377 20.002C9.74377 25.6625 14.3321 30.2559 19.9975 30.2559C25.663 30.2559 30.2563 25.6625 30.2563 20.002C30.2563 14.3366 25.663 9.73839 19.9975 9.73839Z" fill="url(#paint2_linear_261_1234)"/>
</g>
<defs>
<linearGradient id="paint0_linear_261_1234" x1="0.385268" y1="39.5624" x2="36.6476" y2="3.30031" gradientUnits="userSpaceOnUse">
<stop stop-color="#FFD521"/>
<stop offset="0.05" stop-color="#FFD521"/>
<stop offset="0.501119" stop-color="#F50000"/>
<stop offset="0.95" stop-color="#B900B4"/>
<stop offset="0.950079" stop-color="#B900B4"/>
<stop offset="1" stop-color="#B900B4"/>
</linearGradient>
<linearGradient id="paint1_linear_261_1234" x1="0.385369" y1="39.6113" x2="36.6774" y2="3.31925" gradientUnits="userSpaceOnUse">
<stop stop-color="#FFD521"/>
<stop offset="0.05" stop-color="#FFD521"/>
<stop offset="0.501119" stop-color="#F50000"/>
<stop offset="0.95" stop-color="#B900B4"/>
<stop offset="0.950079" stop-color="#B900B4"/>
<stop offset="1" stop-color="#B900B4"/>
</linearGradient>
<linearGradient id="paint2_linear_261_1234" x1="0.394752" y1="39.6123" x2="36.6781" y2="3.32896" gradientUnits="userSpaceOnUse">
<stop stop-color="#FFD521"/>
<stop offset="0.05" stop-color="#FFD521"/>
<stop offset="0.501119" stop-color="#F50000"/>
<stop offset="0.95" stop-color="#B900B4"/>
<stop offset="0.950079" stop-color="#B900B4"/>
<stop offset="1" stop-color="#B900B4"/>
</linearGradient>
<clipPath id="clip0_261_1234">
<rect width="40" height="40" fill="white"/>
</clipPath>
</defs>
</svg>
