<svg width="16" height="16" viewBox="0 0 16 16" fill="none" xmlns="http://www.w3.org/2000/svg">
<path fill-rule="evenodd" clip-rule="evenodd" d="M15.5 8C15.5 12.1421 12.1421 15.5 8 15.5C3.85786 15.5 0.5 12.1421 0.5 8C0.5 3.85786 3.85786 0.5 8 0.5C12.1421 0.5 15.5 3.85786 15.5 8ZM4.13896 8.94962C3.84607 8.65673 3.84607 8.18186 4.13896 7.88896C4.43186 7.59607 4.90673 7.59607 5.19962 7.88896L6.83781 9.52714L10.8543 4.92607C11.1267 4.61403 11.6005 4.58189 11.9125 4.85428C12.2246 5.12668 12.2567 5.60047 11.9843 5.91251L7.44491 11.1126C7.43781 11.1209 7.43051 11.129 7.42299 11.1371C7.36352 11.2008 7.29532 11.2519 7.22188 11.2902C7.02025 11.3954 6.78083 11.4027 6.57394 11.3121C6.49807 11.2789 6.42658 11.2325 6.36293 11.173C6.35489 11.1655 6.34705 11.1578 6.33941 11.1501L4.13896 8.94962Z" fill="#FF0038"/>
</svg>
