<svg width="342" height="89" viewBox="0 0 342 89" fill="none" xmlns="http://www.w3.org/2000/svg">
<path d="M28.8032 38.4041C21.2355 38.4041 15.3779 43.927 15.3779 53.6073V87.7077H-0.606384V24.2982H15.2566V31.1622C18.434 26.5049 23.4307 23.6765 30.2585 23.6765H34.5275V38.3919H28.8032V38.4041Z" fill="#1F1F1F"/>
<path d="M55.763 51.0348L74.3062 49.6815V47.231C74.3062 40.9766 70.1585 37.1727 62.7121 37.1727C56.9757 37.1727 51.6153 39.0137 46.0002 42.8175L39.2936 31.406C46.6187 26.0051 55.0353 22.9449 64.6768 22.9449C79.8 22.9449 89.8053 31.7718 89.8053 45.2681V70.1637C89.8053 72.4923 91.0302 73.8456 93.3466 73.8456H96.6453V87.7077H89.1989C83.0987 87.7077 78.466 84.8914 76.2709 80.2219C71.8807 85.8667 64.9194 89.2926 56.5028 89.2926C43.9385 89.2926 34.6608 81.0753 34.6608 69.9077C34.6487 58.5205 42.3377 52.0223 55.763 51.0348ZM60.0319 77.0399C67.9634 77.0399 74.3062 71.8828 74.3062 65.5065V61.4588L57.9581 62.934C52.5856 63.4216 49.9053 65.6284 49.9053 69.798C49.9053 74.2236 54.053 77.0399 60.0319 77.0399Z" fill="#1F1F1F"/>
<path d="M154.591 87.7077V81.819C148.976 86.5982 141.906 89.4267 134.217 89.4267C115.431 89.4267 100.538 74.3455 100.538 56.07C100.538 37.6726 115.419 22.7133 134.217 22.7133C141.906 22.7133 148.855 25.5296 154.47 30.199V1.86534H170.454V87.7199H154.591V87.7077ZM135.551 36.807C125.06 36.807 116.401 45.2681 116.401 56.0578C116.401 66.7256 125.06 75.4427 135.551 75.4427C146.163 75.4427 154.7 66.7378 154.7 56.0578C154.713 45.2681 146.163 36.807 135.551 36.807Z" fill="#1F1F1F"/>
<path d="M180.447 8.59519C180.447 3.57218 184.474 -0.231644 189.47 -0.231644C194.467 -0.231644 198.251 3.57218 198.251 8.59519C198.251 13.6182 194.467 17.544 189.47 17.544C184.474 17.5562 180.447 13.6304 180.447 8.59519ZM197.402 87.7077H181.43V24.2982H197.414V87.7077H197.402Z" fill="#1F1F1F"/>
<path d="M342.473 87.7077H326.489V50.5471C326.489 42.3299 321.237 36.9289 313.439 36.9289C305.75 36.9289 300.257 42.086 300.257 50.5471V87.7077H284.272V24.2982H300.257V29.6992C304.647 25.1638 310.747 22.5792 317.587 22.5792C332.346 22.5792 342.473 33.4908 342.473 47.3529V87.7077Z" fill="#1F1F1F"/>
<path d="M240.843 31.4548C254.378 31.4548 265.39 42.5249 265.39 56.131C265.39 69.737 254.378 80.8071 240.843 80.8071C227.309 80.8071 216.297 69.737 216.297 56.131C216.297 42.5249 227.309 31.4548 240.843 31.4548ZM240.843 22.6889C222.47 22.6889 207.577 37.6604 207.577 56.131C207.577 74.6015 222.47 89.573 240.843 89.573C259.217 89.573 274.109 74.6015 274.109 56.131C274.109 37.6604 259.217 22.6889 240.843 22.6889Z" fill="#FF0038"/>
<path d="M240.843 43.9026C247.55 43.9026 252.995 49.3889 252.995 56.1188C252.995 62.8486 247.538 68.3349 240.843 68.3349C234.137 68.3349 228.691 62.8486 228.691 56.1188C228.691 49.3889 234.137 43.9026 240.843 43.9026ZM240.843 35.1489C229.31 35.1489 219.971 44.5488 219.971 56.131C219.971 67.7254 229.322 77.113 240.843 77.113C252.364 77.113 261.715 67.7132 261.715 56.131C261.715 44.5366 252.364 35.1489 240.843 35.1489Z" fill="#FF0038"/>
</svg>
